<svg width="427.783" height="100" viewBox="0 0 427.783 100" xmlns="http://www.w3.org/2000/svg"><g id="svgGroup" stroke-linecap="round" fill-rule="evenodd" font-size="9pt" stroke="#ffffff" stroke-width="0.25mm" fill="#000000" style="stroke:#ffffff;stroke-width:0.25mm;fill:#000000"><path d="M 120.703 69.971 L 119.922 69.971 A 39.5 39.5 0 0 1 120.508 73.975 A 42.236 42.236 0 0 1 120.703 77.975 A 18.191 18.191 0 0 1 120.703 77.979 L 120.703 100 L 105.811 100 L 105.811 21.387 L 117.92 21.387 L 120.02 28.467 L 120.703 28.467 A 20.696 20.696 0 0 1 124.008 24.648 A 23.023 23.023 0 0 1 124.268 24.414 A 15.13 15.13 0 0 1 127.727 22.138 A 18.407 18.407 0 0 1 129.321 21.46 Q 132.275 20.362 136.182 20.362 A 19.173 19.173 0 0 1 144.056 21.939 Q 148.014 23.698 151.004 27.421 A 23.078 23.078 0 0 1 151.099 27.539 Q 156.787 34.717 156.787 48.584 A 53.558 53.558 0 0 1 156.409 55.127 Q 155.78 60.233 154.102 64.185 A 25.358 25.358 0 0 1 151.373 69.105 A 18.823 18.823 0 0 1 146.68 73.731 A 18.679 18.679 0 0 1 136.744 76.934 A 22.879 22.879 0 0 1 135.791 76.953 Q 132.423 76.953 129.869 76.228 A 14.465 14.465 0 0 1 129.004 75.952 A 18.738 18.738 0 0 1 126.234 74.726 A 14.664 14.664 0 0 1 124.17 73.365 A 23.043 23.043 0 0 1 121.57 70.97 A 20.11 20.11 0 0 1 120.703 69.971 Z M 233.008 28.369 L 233.496 28.369 A 45.468 45.468 0 0 1 233.342 27.495 Q 233.099 26.044 232.788 23.755 Q 232.373 20.703 232.373 17.481 L 232.373 0 L 247.314 0 L 247.314 75.977 L 235.889 75.977 L 233.008 68.897 L 232.373 68.897 A 18.141 18.141 0 0 1 228.899 72.917 A 20.221 20.221 0 0 1 228.833 72.974 Q 226.709 74.805 223.779 75.879 A 16.735 16.735 0 0 1 220.593 76.685 Q 218.872 76.953 216.895 76.953 A 18.856 18.856 0 0 1 208.612 75.165 Q 204.953 73.405 202.116 69.911 A 23.497 23.497 0 0 1 202.026 69.8 Q 197.74 64.456 196.656 55.365 A 55.714 55.714 0 0 1 196.289 48.78 A 54.036 54.036 0 0 1 196.828 40.872 Q 197.425 36.852 198.68 33.604 A 22.393 22.393 0 0 1 202.1 27.564 A 18.407 18.407 0 0 1 215.418 20.436 A 23.082 23.082 0 0 1 217.285 20.362 Q 221.191 20.362 224.17 21.436 A 18.186 18.186 0 0 1 227.54 23.041 A 15.41 15.41 0 0 1 229.321 24.317 A 19.254 19.254 0 0 1 233.008 28.369 Z M 90.479 39.6 L 90.479 75.977 L 80.078 75.977 L 77.197 68.555 L 76.807 68.555 Q 74.463 71.485 72.021 73.34 A 16.216 16.216 0 0 1 67.043 75.886 A 18.704 18.704 0 0 1 66.406 76.074 Q 63.939 76.758 60.646 76.91 A 42.387 42.387 0 0 1 58.691 76.953 A 21.602 21.602 0 0 1 53.704 76.398 A 17.855 17.855 0 0 1 50.024 75.098 A 13.736 13.736 0 0 1 43.994 69.409 A 15.409 15.409 0 0 1 42.417 65.36 Q 41.962 63.485 41.841 61.294 A 29.502 29.502 0 0 1 41.797 59.668 A 19.506 19.506 0 0 1 42.423 54.569 A 13.162 13.162 0 0 1 47.9 46.851 A 21.45 21.45 0 0 1 53.076 44.361 Q 58.053 42.681 65.228 42.327 A 74.192 74.192 0 0 1 66.211 42.285 L 75.684 41.992 L 75.684 39.6 A 12.986 12.986 0 0 0 75.487 37.258 Q 75.253 35.984 74.741 34.995 A 5.844 5.844 0 0 0 73.437 33.301 A 7.447 7.447 0 0 0 70.48 31.717 Q 69.017 31.299 67.188 31.299 A 27.311 27.311 0 0 0 59.424 32.422 Q 55.615 33.545 51.807 35.254 L 46.875 25.196 A 39.865 39.865 0 0 1 53.307 22.514 A 48.215 48.215 0 0 1 56.616 21.582 Q 62.012 20.264 67.773 20.264 A 40.532 40.532 0 0 1 74.139 20.731 Q 77.516 21.269 80.229 22.427 A 18.159 18.159 0 0 1 84.619 25.049 Q 90.17 29.582 90.462 38.584 A 31.269 31.269 0 0 1 90.479 39.6 Z M 307.959 39.6 L 307.959 75.977 L 297.559 75.977 L 294.678 68.555 L 294.287 68.555 Q 291.943 71.485 289.502 73.34 A 16.216 16.216 0 0 1 284.524 75.886 A 18.704 18.704 0 0 1 283.887 76.074 Q 281.42 76.758 278.126 76.91 A 42.387 42.387 0 0 1 276.172 76.953 A 21.602 21.602 0 0 1 271.184 76.398 A 17.855 17.855 0 0 1 267.505 75.098 A 13.736 13.736 0 0 1 261.475 69.409 A 15.409 15.409 0 0 1 259.897 65.36 Q 259.442 63.485 259.321 61.294 A 29.502 29.502 0 0 1 259.277 59.668 A 19.506 19.506 0 0 1 259.904 54.569 A 13.162 13.162 0 0 1 265.381 46.851 A 21.45 21.45 0 0 1 270.556 44.361 Q 275.534 42.681 282.709 42.327 A 74.192 74.192 0 0 1 283.691 42.285 L 293.164 41.992 L 293.164 39.6 A 12.986 12.986 0 0 0 292.967 37.258 Q 292.733 35.984 292.221 34.995 A 5.844 5.844 0 0 0 290.918 33.301 A 7.447 7.447 0 0 0 287.961 31.717 Q 286.498 31.299 284.668 31.299 A 27.311 27.311 0 0 0 276.904 32.422 Q 273.096 33.545 269.287 35.254 L 264.355 25.196 A 39.865 39.865 0 0 1 270.787 22.514 A 48.215 48.215 0 0 1 274.097 21.582 Q 279.492 20.264 285.254 20.264 A 40.532 40.532 0 0 1 291.62 20.731 Q 294.997 21.269 297.71 22.427 A 18.159 18.159 0 0 1 302.1 25.049 Q 307.65 29.582 307.943 38.584 A 31.269 31.269 0 0 1 307.959 39.6 Z M 396.875 39.6 L 396.875 75.977 L 386.475 75.977 L 383.594 68.555 L 383.203 68.555 Q 380.859 71.485 378.418 73.34 A 16.216 16.216 0 0 1 373.44 75.886 A 18.704 18.704 0 0 1 372.803 76.074 Q 370.336 76.758 367.042 76.91 A 42.387 42.387 0 0 1 365.088 76.953 A 21.602 21.602 0 0 1 360.1 76.398 A 17.855 17.855 0 0 1 356.421 75.098 A 13.736 13.736 0 0 1 350.391 69.409 A 15.409 15.409 0 0 1 348.813 65.36 Q 348.358 63.485 348.237 61.294 A 29.502 29.502 0 0 1 348.193 59.668 A 19.506 19.506 0 0 1 348.82 54.569 A 13.162 13.162 0 0 1 354.297 46.851 A 21.45 21.45 0 0 1 359.472 44.361 Q 364.45 42.681 371.625 42.327 A 74.192 74.192 0 0 1 372.607 42.285 L 382.08 41.992 L 382.08 39.6 A 12.986 12.986 0 0 0 381.883 37.258 Q 381.649 35.984 381.137 34.995 A 5.844 5.844 0 0 0 379.834 33.301 A 7.447 7.447 0 0 0 376.877 31.717 Q 375.414 31.299 373.584 31.299 A 27.311 27.311 0 0 0 365.82 32.422 Q 362.012 33.545 358.203 35.254 L 353.271 25.196 A 39.865 39.865 0 0 1 359.703 22.514 A 48.215 48.215 0 0 1 363.013 21.582 Q 368.408 20.264 374.17 20.264 A 40.532 40.532 0 0 1 380.536 20.731 Q 383.913 21.269 386.626 22.427 A 18.159 18.159 0 0 1 391.016 25.049 Q 396.566 29.582 396.859 38.584 A 31.269 31.269 0 0 1 396.875 39.6 Z M 35.498 20.801 L 34.375 34.766 A 5.285 5.285 0 0 0 33.858 34.625 Q 33.223 34.484 32.3 34.4 Q 31.272 34.306 30.458 34.284 A 17.775 17.775 0 0 0 29.98 34.278 A 21.333 21.333 0 0 0 24.39 35.01 A 13.936 13.936 0 0 0 19.531 37.378 A 11.083 11.083 0 0 0 16.506 40.947 A 13.269 13.269 0 0 0 16.138 41.675 A 12.416 12.416 0 0 0 15.224 44.534 Q 14.893 46.205 14.893 48.194 L 14.893 75.977 L 0 75.977 L 0 21.387 L 11.279 21.387 L 13.477 30.567 L 14.209 30.567 Q 15.82 27.783 18.237 25.464 Q 20.654 23.145 23.755 21.753 A 16.093 16.093 0 0 1 30.019 20.367 A 18.52 18.52 0 0 1 30.469 20.362 Q 31.372 20.362 32.513 20.441 A 45.176 45.176 0 0 1 33.081 20.484 A 31.393 31.393 0 0 1 33.957 20.567 Q 34.86 20.667 35.498 20.801 Z M 169.092 21.387 L 183.984 21.387 L 183.984 75.977 L 169.092 75.977 L 169.092 21.387 Z M 412.207 21.387 L 427.1 21.387 L 427.1 75.977 L 412.207 75.977 L 412.207 21.387 Z M 233.398 50.489 L 233.398 48.877 Q 233.398 40.918 230.957 36.695 Q 228.516 32.471 221.875 32.471 A 9.096 9.096 0 0 0 217.862 33.336 Q 215.688 34.388 214.16 36.719 A 14.608 14.608 0 0 0 212.437 40.522 Q 211.377 44.033 211.377 48.975 A 36.504 36.504 0 0 0 211.624 53.381 Q 212.19 58.014 214.045 60.829 A 10.798 10.798 0 0 0 214.185 61.035 A 8.911 8.911 0 0 0 220.574 64.989 A 11.726 11.726 0 0 0 222.119 65.088 Q 225.961 65.088 228.38 63.647 A 7.485 7.485 0 0 0 230.737 61.45 A 12.257 12.257 0 0 0 232.239 58.36 Q 233.237 55.382 233.383 51.078 A 42.647 42.647 0 0 0 233.398 50.489 Z M 120.703 46.875 L 120.703 48.487 Q 120.703 53.76 121.704 57.422 Q 122.657 60.91 124.851 62.803 A 8.306 8.306 0 0 0 125.073 62.989 A 8.022 8.022 0 0 0 127.887 64.417 Q 129.007 64.744 130.338 64.846 A 16.366 16.366 0 0 0 131.592 64.893 A 10.042 10.042 0 0 0 134.165 64.579 A 7.506 7.506 0 0 0 137.207 62.989 Q 139.13 61.322 140.211 58.292 A 17.708 17.708 0 0 0 140.503 57.398 Q 141.602 53.711 141.602 48.389 Q 141.602 40.92 139.435 36.891 A 11.29 11.29 0 0 0 139.111 36.328 A 8.077 8.077 0 0 0 133.26 32.418 A 11.698 11.698 0 0 0 131.396 32.276 A 15.348 15.348 0 0 0 128.914 32.464 Q 127.603 32.679 126.538 33.14 A 7.548 7.548 0 0 0 125.195 33.887 A 8.214 8.214 0 0 0 122.766 36.613 A 11.484 11.484 0 0 0 121.851 38.721 Q 121.051 41.177 120.804 44.624 A 43.596 43.596 0 0 0 120.703 46.875 Z M 75.684 55.176 L 75.684 50.684 L 69.922 50.879 Q 62.695 51.074 59.888 53.467 A 7.766 7.766 0 0 0 57.098 59.15 A 10.387 10.387 0 0 0 57.08 59.766 Q 57.08 61.917 57.873 63.285 A 4.263 4.263 0 0 0 59.082 64.624 Q 61.084 66.065 64.307 66.065 A 13.392 13.392 0 0 0 68.465 65.442 A 11.339 11.339 0 0 0 72.388 63.233 A 9.193 9.193 0 0 0 75.423 57.926 A 13.772 13.772 0 0 0 75.684 55.176 Z M 293.164 55.176 L 293.164 50.684 L 287.402 50.879 Q 280.176 51.074 277.368 53.467 A 7.766 7.766 0 0 0 274.579 59.15 A 10.387 10.387 0 0 0 274.561 59.766 Q 274.561 61.917 275.354 63.285 A 4.263 4.263 0 0 0 276.563 64.624 Q 278.564 66.065 281.787 66.065 A 13.392 13.392 0 0 0 285.946 65.442 A 11.339 11.339 0 0 0 289.868 63.233 A 9.193 9.193 0 0 0 292.903 57.926 A 13.772 13.772 0 0 0 293.164 55.176 Z M 382.08 55.176 L 382.08 50.684 L 376.318 50.879 Q 369.092 51.074 366.284 53.467 A 7.766 7.766 0 0 0 363.495 59.15 A 10.387 10.387 0 0 0 363.477 59.766 Q 363.477 61.917 364.27 63.285 A 4.263 4.263 0 0 0 365.479 64.624 Q 367.48 66.065 370.703 66.065 A 13.392 13.392 0 0 0 374.862 65.442 A 11.339 11.339 0 0 0 378.784 63.233 A 9.193 9.193 0 0 0 381.819 57.926 A 13.772 13.772 0 0 0 382.08 55.176 Z M 323.706 62.549 A 5.417 5.417 0 0 0 322.071 64.522 Q 321.191 66.28 321.191 68.994 A 13.847 13.847 0 0 0 321.231 70.053 Q 321.505 73.633 323.706 75.342 A 8.974 8.974 0 0 0 326.674 76.866 A 10.848 10.848 0 0 0 329.785 77.295 A 11.772 11.772 0 0 0 330.545 77.271 A 9.284 9.284 0 0 0 335.767 75.342 Q 338.281 73.389 338.281 68.994 Q 338.281 66.762 337.686 65.177 A 5.624 5.624 0 0 0 335.767 62.549 A 9.189 9.189 0 0 0 333.014 61.157 A 10.845 10.845 0 0 0 329.785 60.694 A 12.39 12.39 0 0 0 328.146 60.799 A 9.447 9.447 0 0 0 323.706 62.549 Z M 176.563 0 Q 179.883 0 182.275 1.538 A 4.729 4.729 0 0 1 184.138 3.912 Q 184.668 5.299 184.668 7.276 A 11.259 11.259 0 0 1 184.499 9.3 Q 184.032 11.848 182.275 13.013 A 9.454 9.454 0 0 1 178.381 14.471 A 12.405 12.405 0 0 1 176.562 14.6 A 11.938 11.938 0 0 1 173.806 14.296 A 9.052 9.052 0 0 1 170.825 13.013 A 4.868 4.868 0 0 1 168.977 10.603 Q 168.652 9.739 168.53 8.656 A 12.357 12.357 0 0 1 168.457 7.276 A 11.567 11.567 0 0 1 168.623 5.239 Q 168.816 4.16 169.236 3.335 A 4.549 4.549 0 0 1 170.825 1.538 A 9.371 9.371 0 0 1 174.317 0.19 A 12.719 12.719 0 0 1 176.563 0 Z M 419.678 0 Q 422.998 0 425.391 1.538 A 4.729 4.729 0 0 1 427.253 3.912 Q 427.783 5.299 427.783 7.276 A 11.259 11.259 0 0 1 427.614 9.3 Q 427.148 11.848 425.391 13.013 A 9.454 9.454 0 0 1 421.496 14.471 A 12.405 12.405 0 0 1 419.678 14.6 A 11.938 11.938 0 0 1 416.921 14.296 A 9.052 9.052 0 0 1 413.94 13.013 A 4.868 4.868 0 0 1 412.093 10.603 Q 411.767 9.739 411.645 8.656 A 12.357 12.357 0 0 1 411.572 7.276 A 11.567 11.567 0 0 1 411.738 5.239 Q 411.932 4.16 412.351 3.335 A 4.549 4.549 0 0 1 413.94 1.538 A 9.371 9.371 0 0 1 417.433 0.19 A 12.719 12.719 0 0 1 419.678 0 Z" vector-effect="non-scaling-stroke"/></g></svg>